<svg xmlns="http://www.w3.org/2000/svg" xmlns:xlink="http://www.w3.org/1999/xlink" viewBox="0 0 102.27 132.09"><defs><style>.cls-1{fill:lime;}.cls-2{opacity:0.92;fill:url(#Degradado_sin_nombre_45);}.cls-3{font-size:13.52px;font-family:VinerHandITC, Viner Hand ITC;}</style><linearGradient id="Degradado_sin_nombre_45" x1="48.94" y1="124.33" x2="48.94" y2="41.44" gradientUnits="userSpaceOnUse"><stop offset="0" stop-color="#fff"/><stop offset="0.21" stop-color="#bdfabd"/><stop offset="0.41" stop-color="#86f786"/><stop offset="0.6" stop-color="#5bf45b"/><stop offset="0.76" stop-color="#3cf23c"/><stop offset="0.9" stop-color="#2af02a"/><stop offset="1" stop-color="#23f023"/></linearGradient></defs><title>Recurso 7</title><g id="Capa_2" data-name="Capa 2"><g id="Capa_1-2" data-name="Capa 1"><path class="cls-1" d="M37.47,127.84s-33.79-6.38-37-26.78,10.2-44.63,10.2-44.63-8.93,24.23.64,26.78c0,0,19.77-41.44,7.65-54.19L36.83,67.9S27.59,42.72,49.27,44.63,60.74,0,60.74,0s25.5,44.63,11.48,50.37-7.33,16.26-7.33,16.26S79.55,81.29,88.48,55.15c0,0,1.28,23.59-7,26.14s17.21,9.56,20.4-9.56c0,0,3.83,40.81-12.11,51C78.46,130,45.12,136.76,37.47,127.84Z"/><path class="cls-2" d="M41.62,124.33s-21-8.29-20.4-16.58S29.5,90.54,29.5,90.54s-5.74,12.11-.64,12.75,8.29-25.5,5.1-26.78c0,0,12.11,13.39,9.56,15.94,0,0-4.46-28.69,2.55-30.6s8.93-16.58,7-20.4c0,0,10.2,21,5.74,24.87S60.11,89.9,60.11,89.9s12.11.64,12.11-7c0,0-2.55,15.94-6.38,17.85,0,0,7.65,3.83,10.84-1.91,0,0-12.11,22.32-14,23.59S41.62,124.33,41.62,124.33Z"/><text class="cls-3" transform="translate(4.2 105.74)">ETEREOARTE</text></g></g></svg>